<svg xmlns="http://www.w3.org/2000/svg" width="254.253" height="48" viewBox="0 0 254.253 48">
  <g id="Group_24419" data-name="Group 24419" transform="translate(-1090 -5453)">
    <path id="Path_34893" data-name="Path 34893" d="M8.169,5.821H22.28v4.17H.876L15.311-15.241H3.237v-4.17H22.6ZM34.237-19.411v29.4H29.8v-29.4Zm10.89,0L53.259.965,61.5-19.411H66.36L53.163,12.2,40.271-19.411ZM69.6-4.843a14.4,14.4,0,0,1,4.551-10.664,14.98,14.98,0,0,1,10.893-4.456,14.7,14.7,0,0,1,10.778,4.494,14.692,14.692,0,0,1,4.513,10.8A14.458,14.458,0,0,1,95.8,6.087a15.168,15.168,0,0,1-10.988,4.437A15.171,15.171,0,0,1,74.584,6.583,14.447,14.447,0,0,1,69.6-4.843Zm4.475.057a10.627,10.627,0,0,0,3.275,8.017,10.513,10.513,0,0,0,7.522,3.142,10.582,10.582,0,0,0,7.808-3.2,10.828,10.828,0,0,0,3.18-7.884,10.774,10.774,0,0,0-3.142-7.884,10.373,10.373,0,0,0-7.731-3.2,10.475,10.475,0,0,0-7.75,3.2A10.607,10.607,0,0,0,74.07-4.786Zm49.3-.533H135.52v.971a20.067,20.067,0,0,1-.781,5.865,12.465,12.465,0,0,1-2.571,4.418,13.319,13.319,0,0,1-10.417,4.608,14.32,14.32,0,0,1-10.569-4.456,14.775,14.775,0,0,1-4.4-10.74,14.74,14.74,0,0,1,4.475-10.854,14.825,14.825,0,0,1,10.893-4.475,14.906,14.906,0,0,1,6.437,1.409A18.563,18.563,0,0,1,134.206-14l-3.161,3.028q-3.618-4.818-8.817-4.818a10.533,10.533,0,0,0-7.827,3.218,10.746,10.746,0,0,0-3.161,7.922,10.422,10.422,0,0,0,3.523,8.093A10.511,10.511,0,0,0,121.9,6.392a8.866,8.866,0,0,0,5.884-2.209A7.859,7.859,0,0,0,130.7-1.149H123.37Zm24.506-14.092V-1.7q0,3.79,1.238,5.542a6.06,6.06,0,0,0,5.2,2.533,6.079,6.079,0,0,0,5.218-2.533q1.238-1.695,1.238-5.542v-17.71h4.437V-.482a10.592,10.592,0,0,1-2.895,7.655,10.717,10.717,0,0,1-8,3.352,10.656,10.656,0,0,1-7.979-3.352,10.592,10.592,0,0,1-2.895-7.655V-19.411Zm42.94,4.17H179.028v7.065h11.445v4.17H179.028V5.821h11.788v4.17H174.591v-29.4h16.225Z" transform="translate(1153.438 5480.482)" fill="#a8a8a8"/>
    <g id="Group_24415" data-name="Group 24415" transform="translate(1090 5453)">
      <rect id="Rectangle_4" data-name="Rectangle 4" width="48" height="48" transform="translate(0 0)" fill="#a8a8a8"/>
      <g id="zivoguelogo" transform="translate(0 0)">
        <g id="symbol" transform="translate(0 0)">
          <ellipse id="Oval" cx="17.417" cy="17.417" rx="17.417" ry="17.417" transform="matrix(0.848, -0.53, 0.53, 0.848, 0, 18.459)" fill="#fff" opacity="0"/>
          <path id="Zi-Copy-4" d="M.706,12.988l.367-7.24H15.3V6.794L3.36,25.573H7.906a5.762,5.762,0,0,0,4.518-1.64,11.706,11.706,0,0,0,2.089-5.147H15.5l-.367,7.862H0v-.962L12.028,6.822H7.765a5.681,5.681,0,0,0-4.207,1.4,8.428,8.428,0,0,0-1.864,4.765ZM17.037,0a1.71,1.71,0,0,1,1.244.524,1.715,1.715,0,0,1,.529,1.264,1.629,1.629,0,0,1-.5,1.2,1.816,1.816,0,0,1-2.488,0,1.629,1.629,0,0,1-.5-1.2A1.757,1.757,0,0,1,15.84.539,1.6,1.6,0,0,1,17.037,0Z" transform="matrix(0.848, -0.53, 0.53, 0.848, 9.01, 17.758)" fill="#fff" fill-rule="evenodd"/>
        </g>
      </g>
    </g>
  </g>
</svg>
